<?xml version="1.0" encoding="UTF-8"?>
<svg width="1440px" height="693px" viewBox="0 0 1440 693" version="1.1" xmlns="http://www.w3.org/2000/svg" xmlns:xlink="http://www.w3.org/1999/xlink">
    <!-- Generator: Sketch 63.1 (92452) - https://sketch.com -->
    <title>Background/Purple</title>
    <desc>Created with Sketch.</desc>
    <defs>
        <linearGradient x1="50%" y1="0%" x2="50%" y2="100%" id="linearGradient-1">
            <stop stop-color="#5E2875" offset="0%"></stop>
            <stop stop-color="#461D58" offset="100%"></stop>
        </linearGradient>
        <linearGradient x1="50%" y1="0%" x2="50%" y2="100%" id="linearGradient-2">
            <stop stop-color="#5E2875" offset="0%"></stop>
            <stop stop-color="#461D58" offset="100%"></stop>
        </linearGradient>
        <linearGradient x1="50%" y1="0%" x2="50%" y2="100%" id="linearGradient-3">
            <stop stop-color="#5E2875" offset="0%"></stop>
            <stop stop-color="#461D58" offset="100%"></stop>
        </linearGradient>
        <linearGradient x1="11.0150945%" y1="37.0704625%" x2="46.0655269%" y2="58.6140078%" id="linearGradient-4">
            <stop stop-color="#5E2875" offset="0%"></stop>
            <stop stop-color="#370F3C" offset="100%"></stop>
        </linearGradient>
    </defs>
    <g id="Design" stroke="none" stroke-width="1" fill="none" fill-rule="evenodd">
        <g id="04_webD_RecipeintContactInfo">
            <g id="Background/Purple">
                <g>
                    <g id="Clouds">
                        <rect id="Rectangle-Copy-2" fill="#461D58" x="4.54747351e-13" y="0" width="1440" height="693"></rect>
                        <path d="M346,60 C346,53.9248678 350.924868,49 357,49 C360.065988,49 362.839003,50.254365 364.833851,52.2779012 C367.88354,46.2007527 374.423947,42 382,42 C384.933748,42 387.712196,42.6299218 390.192865,43.7547853 C395.268782,36.6393458 403.592602,32 413,32 C425.148018,32 435.489146,39.7362163 439.365489,50.5507539 C441.012833,49.566093 442.940308,49 445,49 C451.075132,49 456,53.9248678 456,60 L456,60 Z" id="Combined-Shape" fill="url(#linearGradient-1)"></path>
                        <path d="M908,119 C908,112.924868 912.924868,108 919,108 C922.065988,108 924.839003,109.254365 926.833851,111.277901 C929.88354,105.200753 936.423947,101 944,101 C946.933748,101 949.712196,101.629922 952.192865,102.754785 C957.268782,95.6393458 965.592602,91 975,91 C987.148018,91 997.489146,98.7362163 1001.36549,109.550754 C1003.01283,108.566093 1004.94031,108 1007,108 C1013.07513,108 1018,112.924868 1018,119 L1018,119 Z" id="Combined-Shape-Copy" fill="url(#linearGradient-1)"></path>
                        <path d="M579,185 C579,176.163444 585.939586,169 594.5,169 C598.855332,169 602.791109,170.854279 605.606859,173.839769 C609.943665,165.06521 619.236287,159 630,159 C634.452774,159 638.653793,160.037965 642.356368,161.876341 C649.603369,151.664659 661.523377,145 675,145 C692.259414,145 706.965709,155.931201 712.573313,171.248032 C714.891686,169.82039 717.603031,169 720.5,169 C729.060414,169 736,176.163444 736,185 L736,185 Z" id="Combined-Shape-Copy-3" fill="url(#linearGradient-2)"></path>
                        <path d="M0,128 C0,111.944293 13.0285138,98.9285714 29.1,98.9285714 C37.2100358,98.9285714 44.545197,102.242947 49.82235,107.589825 C57.8930522,91.5298276 75.1949211,80.4285714 95.2363636,80.4285714 C102.99734,80.4285714 110.34749,82.093313 116.90991,85.06608 C130.339797,66.2603081 152.359444,54 177.245455,54 C209.382642,54 236.739736,74.4459154 246.994307,103.027414 C251.352614,100.424533 256.451435,98.9285714 261.9,98.9285714 C277.971486,98.9285714 291,111.944293 291,128 L291,128 Z" id="Combined-Shape" fill="url(#linearGradient-3)" transform="translate(145.500000, 91.000000) scale(-1, 1) translate(-145.500000, -91.000000) "></path>
                        <path d="M935,165 C935,148.944293 948.028514,135.928571 964.1,135.928571 C972.210036,135.928571 979.545197,139.242947 984.82235,144.589825 C992.893052,128.529828 1010.19492,117.428571 1030.23636,117.428571 C1037.99734,117.428571 1045.34749,119.093313 1051.90991,122.06608 C1065.3398,103.260308 1087.35944,91 1112.24545,91 C1144.38264,91 1171.73974,111.445915 1181.99431,140.027414 C1186.35261,137.424533 1191.45143,135.928571 1196.9,135.928571 C1212.97149,135.928571 1226,148.944293 1226,165 L1226,165 Z" id="Combined-Shape-Copy-2" fill="url(#linearGradient-3)"></path>
                    </g>
                    <path d="M1440,690.938573 C1141.09863,360.892099 784.68992,172.912574 370.773864,127 L370.773864,687.107032 L1440,690.938573 Z" id="Wave-Shape-Background" fill="url(#linearGradient-4)" transform="translate(905.386932, 408.969287) scale(-1, 1) translate(-905.386932, -408.969287) "></path>
                    <g id="Illustration/stars" transform="translate(37.000000, 5.000000)" fill="#FFFDFB" opacity="0.624697731">
                        <g>
                            <polygon id="Star" points="232.096426 54.5415913 230.297619 55.4602603 230.641161 53.5144882 229.185896 52.1364847 231.197023 51.8526004 232.096426 50.0822785 232.995829 51.8526004 235.006956 52.1364847 233.551691 53.5144882 233.895233 55.4602603"></polygon>
                            <polygon id="Star-Copy-5" points="691.060313 91.4593128 689.261506 92.3779818 689.605048 90.4322097 688.149782 89.0542063 690.160909 88.7703219 691.060313 87 691.959716 88.7703219 693.970843 89.0542063 692.515578 90.4322097 692.859119 92.3779818"></polygon>
                            <polygon id="Star-Copy-4" points="397.883842 26.4593128 396.085035 27.3779818 396.428577 25.4322097 394.973312 24.0542063 396.984439 23.7703219 397.883842 22 398.783245 23.7703219 400.794373 24.0542063 399.339107 25.4322097 399.682649 27.3779818"></polygon>
                            <polygon id="Star-Copy-6" points="850.060313 71.4593128 848.261506 72.3779818 848.605048 70.4322097 847.149782 69.0542063 849.160909 68.7703219 850.060313 67 850.959716 68.7703219 852.970843 69.0542063 851.515578 70.4322097 851.859119 72.3779818"></polygon>
                            <polygon id="Star-Copy-20" points="1240.06031 19.4593128 1238.26151 20.3779818 1238.60505 18.4322097 1237.14978 17.0542063 1239.16091 16.7703219 1240.06031 15 1240.95972 16.7703219 1242.97084 17.0542063 1241.51558 18.4322097 1241.85912 20.3779818"></polygon>
                            <polygon id="Star-Copy" transform="translate(125.058311, 33.717074) rotate(28.000000) translate(-125.058311, -33.717074) " points="125.028988 35.4882201 123.230309 36.4341483 123.595409 34.4716941 122.166109 33.1019931 124.168032 32.79245 125.083355 31 125.955511 32.771146 127.950513 33.033052 126.487611 34.4372236 126.805267 36.3915404"></polygon>
                            <polygon id="Star-Copy-7" transform="translate(526.892202, 41.407331) rotate(28.000000) translate(-526.892202, -41.407331) " points="526.86288 43.1784765 525.0642 44.1244047 525.429301 42.1619505 524 40.7922495 526.001924 40.4827063 526.917246 38.6902564 527.789403 40.4614024 529.784404 40.7233084 528.321503 42.12748 528.639159 44.0817967"></polygon>
                            <polygon id="Star-Copy-2" transform="translate(5.615253, 17.377537) rotate(-28.000000) translate(-5.615253, -17.377537) " points="5.65190557 19.5914692 3.43155681 20.7206194 3.82862658 18.2777235 2 16.522509 4.49375178 16.1951265 5.58394715 13.981194 6.72810074 16.2217564 9.23050511 16.6086854 7.44387914 18.3208117 7.90025473 20.7738794"></polygon>
                            <polygon id="Star-Copy-8" transform="translate(447.786565, 77.396343) rotate(-28.000000) translate(-447.786565, -77.396343) " points="447.823218 79.6102752 445.602869 80.7394255 445.999939 78.2965295 444.171312 76.541315 446.665064 76.2139325 447.755259 74 448.899413 76.2405625 451.401817 76.6274914 449.615191 78.3396177 450.071567 80.7926854"></polygon>
                            <polygon id="Star-Copy-16" transform="translate(996.615253, 29.396343) rotate(-28.000000) translate(-996.615253, -29.396343) " points="996.651906 31.6102752 994.431557 32.7394255 994.828627 30.2965295 993 28.541315 995.493752 28.2139325 996.583947 26 997.728101 28.2405625 1000.23051 28.6274914 998.443879 30.3396177 998.900255 32.7926854"></polygon>
                            <polygon id="Star-Copy-19" transform="translate(1319.615253, 91.396343) rotate(-28.000000) translate(-1319.615253, -91.396343) " points="1319.65191 93.6102752 1317.43156 94.7394255 1317.82863 92.2965295 1316 90.541315 1318.49375 90.2139325 1319.58395 88 1320.7281 90.2405625 1323.23051 90.6274914 1321.44388 92.3396177 1321.90025 94.7926854"></polygon>
                            <polygon id="Star" points="177.00406 75.0750588 175.954756 75.610949 176.155155 74.4759153 175.30625 73.6720799 176.479408 73.5064808 177.00406 72.473793 177.528712 73.5064808 178.701869 73.6720799 177.852964 74.4759153 178.053364 75.610949"></polygon>
                            <polygon id="Star-Copy-9" points="603.095929 75.0750588 602.046625 75.610949 602.247024 74.4759153 601.398119 73.6720799 602.571277 73.5064808 603.095929 72.473793 603.620581 73.5064808 604.793738 73.6720799 603.944833 74.4759153 604.145233 75.610949"></polygon>
                            <polygon id="Star-Copy" transform="translate(198.601708, 29.981247) rotate(28.000000) translate(-198.601708, -29.981247) " points="198.584603 31.0144156 197.535373 31.566207 197.748349 30.4214421 196.91459 29.6224498 198.082379 29.441883 198.616317 28.3962872 199.125075 29.4294556 200.288826 29.5822342 199.435467 30.4013342 199.620766 31.5413524"></polygon>
                            <polygon id="Star-Copy-10" transform="translate(624.693577, 29.981247) rotate(28.000000) translate(-624.693577, -29.981247) " points="624.676472 31.0144156 623.627242 31.566207 623.840218 30.4214421 623.006459 29.6224498 624.174248 29.441883 624.708186 28.3962872 625.216944 29.4294556 626.380695 29.5822342 625.527335 30.4013342 625.712635 31.5413524"></polygon>
                            <polygon id="Star-Copy-17" transform="translate(821.687118, 12.584960) rotate(28.000000) translate(-821.687118, -12.584960) " points="821.670013 13.6181284 820.620784 14.1699199 820.833759 13.0251549 820 12.2261627 821.167789 12.0455958 821.701727 11 822.210485 12.0331685 823.374236 12.185947 822.520877 13.0050471 822.706176 14.1450652"></polygon>
                            <polygon id="Star-Copy" transform="translate(331.669467, 2.576184) rotate(28.000000) translate(-331.669467, -2.576184) " points="331.652362 3.60935228 330.603132 4.16114371 330.816107 3.01637878 329.982349 2.21738651 331.150137 2.03681967 331.684076 0.99122386 332.192834 2.02439235 333.356584 2.17717086 332.503225 2.99627095 332.688525 4.13628907"></polygon>
                            <polygon id="Star-Copy-11" transform="translate(919.687118, 96.584960) rotate(28.000000) translate(-919.687118, -96.584960) " points="919.670013 97.6181284 918.620784 98.1699199 918.833759 97.0251549 918 96.2261627 919.167789 96.0455958 919.701727 95 920.210485 96.0331685 921.374236 96.185947 920.520877 97.0050471 920.706176 98.1450652"></polygon>
                            <polygon id="Star-Copy-21" transform="translate(1145.687118, 83.584960) rotate(28.000000) translate(-1145.687118, -83.584960) " points="1145.67001 84.6181284 1144.62078 85.1699199 1144.83376 84.0251549 1144 83.2261627 1145.16779 83.0455958 1145.70173 82 1146.21048 83.0331685 1147.37424 83.185947 1146.52088 84.0050471 1146.70618 85.1450652"></polygon>
                            <polygon id="Star-Copy-24" transform="translate(915.687118, 25.584960) rotate(28.000000) translate(-915.687118, -25.584960) " points="915.670013 26.6181284 914.620784 27.1699199 914.833759 26.0251549 914 25.2261627 915.167789 25.0455958 915.701727 24 916.210485 25.0331685 917.374236 25.185947 916.520877 26.0050471 916.706176 27.1450652"></polygon>
                            <polygon id="Star-Copy-2" transform="translate(57.101752, 145.419597) rotate(-28.000000) translate(-57.101752, -145.419597) " points="57.123133 146.711057 55.8279296 147.369728 56.0595536 145.944706 54.9928548 144.920831 56.4475433 144.729858 57.0834906 143.438397 57.7509135 144.745392 59.2106494 144.9711 58.1684509 145.969841 58.43467 147.400797"></polygon>
                            <polygon id="Star-Copy-12" transform="translate(520.108897, 100.981200) rotate(-28.000000) translate(-520.108897, -100.981200) " points="520.130278 102.272661 518.835075 102.931332 519.066699 101.506309 518 100.482434 519.454689 100.291461 520.090636 99 520.758059 100.306995 522.217795 100.532703 521.175596 101.531444 521.441815 102.9624"></polygon>
                            <polygon id="Star-Copy-2" transform="translate(147.689987, 129.419597) rotate(-28.000000) translate(-147.689987, -129.419597) " points="147.711368 130.711057 146.416165 131.369728 146.647789 129.944706 145.58109 128.920831 147.035779 128.729858 147.671726 127.438397 148.339149 128.745392 149.798885 128.9711 148.756686 129.969841 149.022905 131.400797"></polygon>
                            <polygon id="Star-Copy-13" transform="translate(573.781856, 129.419597) rotate(-28.000000) translate(-573.781856, -129.419597) " points="573.803237 130.711057 572.508034 131.369728 572.739658 129.944706 571.672959 128.920831 573.127648 128.729858 573.763595 127.438397 574.431018 128.745392 575.890754 128.9711 574.848555 129.969841 575.114774 131.400797"></polygon>
                            <polygon id="Star-Copy-18" transform="translate(1062.108897, 105.981200) rotate(-28.000000) translate(-1062.108897, -105.981200) " points="1062.13028 107.272661 1060.83507 107.931332 1061.0667 106.506309 1060 105.482434 1061.45469 105.291461 1062.09064 104 1062.75806 105.306995 1064.21779 105.532703 1063.1756 106.531444 1063.44182 107.9624"></polygon>
                            <polygon id="Star-Copy-3" transform="translate(332.912437, 50.989217) rotate(-28.000000) translate(-332.912437, -50.989217) " points="332.933818 52.2806777 331.638615 52.9393487 331.870239 51.514326 330.80354 50.4904509 332.258228 50.2994778 332.894176 49.0080172 333.561599 50.3150119 335.021334 50.5407205 333.979136 51.5394608 334.245355 52.970417"></polygon>
                            <polygon id="Star-Copy-14" transform="translate(759.004306, 50.989217) rotate(-28.000000) translate(-759.004306, -50.989217) " points="759.025687 52.2806777 757.730484 52.9393487 757.962108 51.514326 756.895409 50.4904509 758.350097 50.2994778 758.986045 49.0080172 759.653467 50.3150119 761.113203 50.5407205 760.071005 51.5394608 760.337224 52.970417"></polygon>
                            <polygon id="Star-Copy-3" transform="translate(275.265378, 98.989217) rotate(-28.000000) translate(-275.265378, -98.989217) " points="275.286759 100.280678 273.991556 100.939349 274.22318 99.514326 273.156481 98.4904509 274.61117 98.2994778 275.247117 97.0080172 275.91454 98.3150119 277.374276 98.5407205 276.332077 99.5394608 276.598296 100.970417"></polygon>
                            <polygon id="Star-Copy-15" transform="translate(778.108897, 123.981200) rotate(-28.000000) translate(-778.108897, -123.981200) " points="778.130278 125.272661 776.835075 125.931332 777.066699 124.506309 776 123.482434 777.454689 123.291461 778.090636 122 778.758059 123.306995 780.217795 123.532703 779.175596 124.531444 779.441815 125.9624"></polygon>
                        </g>
                    </g>
                </g>
            </g>
        </g>
    </g>
</svg>